<svg width="20" height="20" viewBox="0 0 20 20" fill="none" xmlns="http://www.w3.org/2000/svg">
<path d="M10 18.4C9.75002 18.4 9.50002 18.3417 9.29169 18.225C7.73335 17.375 4.99169 16.475 3.27502 16.25L3.03335 16.2167C1.94169 16.0833 1.04169 15.0583 1.04169 13.95V3.88333C1.04169 3.225 1.30002 2.625 1.77502 2.19167C2.25002 1.75833 2.86669 1.55 3.51669 1.60833C5.35002 1.75 8.11669 2.66667 9.68335 3.65L9.88335 3.76667C9.94169 3.8 10.0667 3.8 10.1167 3.775L10.25 3.69167C11.8167 2.70833 14.5834 1.775 16.425 1.61667C16.4417 1.61667 16.5084 1.61667 16.525 1.61667C17.1334 1.55833 17.7584 1.775 18.225 2.20833C18.7 2.64167 18.9584 3.24167 18.9584 3.9V13.9583C18.9584 15.075 18.0584 16.0917 16.9584 16.225L16.6834 16.2583C14.9667 16.4833 12.2167 17.3917 10.6917 18.2333C10.4917 18.35 10.25 18.4 10 18.4ZM3.31669 2.85C3.05002 2.85 2.80835 2.94167 2.61669 3.11667C2.40835 3.30833 2.29169 3.58333 2.29169 3.88333V13.95C2.29169 14.4417 2.71669 14.9167 3.19169 14.9833L3.44169 15.0167C5.31669 15.2667 8.19169 16.2083 9.85835 17.1167C9.93335 17.15 10.0417 17.1583 10.0834 17.1417C11.75 16.2167 14.6417 15.2667 16.525 15.0167L16.8084 14.9833C17.2834 14.925 17.7084 14.4417 17.7084 13.95V3.89167C17.7084 3.58333 17.5917 3.31667 17.3834 3.11667C17.1667 2.925 16.8917 2.83333 16.5834 2.85C16.5667 2.85 16.5 2.85 16.4834 2.85C14.8917 2.99167 12.325 3.85 10.925 4.725L10.7917 4.81667C10.3334 5.1 9.68335 5.1 9.24169 4.825L9.04169 4.70833C7.61669 3.83333 5.05002 2.98333 3.41669 2.85C3.38335 2.85 3.35002 2.85 3.31669 2.85Z" fill="#1F1F1F"/>
<path d="M9.99998 17.7C9.65831 17.7 9.37498 17.4167 9.37498 17.075V4.575C9.37498 4.23333 9.65831 3.95 9.99998 3.95C10.3416 3.95 10.625 4.23333 10.625 4.575V17.075C10.625 17.425 10.3416 17.7 9.99998 17.7ZM6.45831 7.7H4.58331C4.24165 7.7 3.95831 7.41666 3.95831 7.075C3.95831 6.73333 4.24165 6.45 4.58331 6.45H6.45831C6.79998 6.45 7.08331 6.73333 7.08331 7.075C7.08331 7.41666 6.79998 7.7 6.45831 7.7ZM7.08331 10.2H4.58331C4.24165 10.2 3.95831 9.91667 3.95831 9.57501C3.95831 9.23334 4.24165 8.95001 4.58331 8.95001H7.08331C7.42498 8.95001 7.70831 9.23334 7.70831 9.57501C7.70831 9.91667 7.42498 10.2 7.08331 10.2Z" fill="#1F1F1F"/>
</svg>
