<svg width="18" height="17" viewBox="0 0 18 17" fill="none" xmlns="http://www.w3.org/2000/svg">
<path d="M8.95833 16.0833C8.7 16.0833 8.45 16.05 8.24167 15.975C5.05833 14.8833 0 11.0083 0 5.28333C0 2.36667 2.35833 0 5.25833 0C6.66667 0 7.98333 0.55 8.95833 1.53333C9.93333 0.55 11.25 0 12.6583 0C15.5583 0 17.9167 2.375 17.9167 5.28333C17.9167 11.0167 12.8583 14.8833 9.675 15.975C9.46667 16.05 9.21667 16.0833 8.95833 16.0833ZM5.25833 1.25C3.05 1.25 1.25 3.05833 1.25 5.28333C1.25 10.975 6.725 14.1417 8.65 14.8C8.8 14.85 9.125 14.85 9.275 14.8C11.1917 14.1417 16.675 10.9833 16.675 5.28333C16.675 3.05833 14.875 1.25 12.6667 1.25C11.4 1.25 10.225 1.84167 9.46667 2.86667C9.23333 3.18333 8.7 3.18333 8.46667 2.86667C7.69167 1.83333 6.525 1.25 5.25833 1.25Z" fill="#FF0000"/>
<path d="M12.5333 0.599972C11.025 0.599972 9.675 1.3333 8.83333 2.4583C7.99167 1.3333 6.64167 0.599972 5.13333 0.599972C2.575 0.599972 0.5 2.6833 0.5 5.2583C0.5 6.24997 0.658333 7.16667 0.933333 8.01667C2.25 12.1833 6.30833 14.675 8.31667 15.3583C8.6 15.4583 9.06667 15.4583 9.35 15.3583C11.3583 14.675 15.4167 12.1833 16.7333 8.01667C17.0083 7.16667 17.1667 6.24997 17.1667 5.2583C17.1667 2.6833 15.0917 0.599972 12.5333 0.599972Z" fill="#FF0000"/>
</svg>
