<svg width="20" height="28" viewBox="0 0 20 28" fill="none" xmlns="http://www.w3.org/2000/svg">
<path d="M10.0166 17.1082C8.0749 17.1082 6.13323 16.7999 4.29157 16.1832C3.59157 15.9416 3.05823 15.4499 2.8249 14.8082C2.58323 14.1666 2.66657 13.4582 3.0499 12.8249L4.00823 11.2332C4.20823 10.8999 4.39157 10.2332 4.39157 9.84157V7.43326C4.39157 4.33326 6.91657 1.80826 10.0166 1.80826C13.1166 1.80826 15.6416 4.33326 15.6416 7.43326V9.84157C15.6416 10.2249 15.8249 10.8999 16.0249 11.2416L16.9749 12.8249C17.3333 13.4249 17.3999 14.1499 17.1583 14.8082C16.9166 15.4666 16.3916 15.9666 15.7333 16.1832C13.8999 16.7999 11.9583 17.1082 10.0166 17.1082ZM10.0166 3.05826C7.60823 3.05826 5.64157 5.01659 5.64157 7.43326V9.84157C5.64157 10.4499 5.39157 11.3499 5.08323 11.8749L4.1249 13.4666C3.94157 13.7749 3.89157 14.0999 3.9999 14.3749C4.0999 14.6582 4.3499 14.8749 4.69157 14.9916C8.1749 16.1582 11.8666 16.1582 15.3499 14.9916C15.6499 14.8916 15.8833 14.6666 15.9916 14.3666C16.0999 14.0666 16.0749 13.7416 15.9083 13.4666L14.9499 11.8749C14.6333 11.3332 14.3916 10.4416 14.3916 9.83324V7.43326C14.3916 5.01659 12.4333 3.05826 10.0166 3.05826Z" fill="#1F1F1F"/>
<path d="M11.5663 3.28349C11.508 3.28349 11.4497 3.27516 11.3913 3.25849C11.1497 3.19182 10.9163 3.14182 10.6913 3.10849C9.98299 3.01682 9.29966 3.06682 8.65799 3.25849C8.42466 3.33349 8.17468 3.25849 8.01635 3.08349C7.85802 2.90849 7.80802 2.65849 7.89968 2.43349C8.24135 1.55849 9.07466 0.98349 10.0247 0.98349C10.9747 0.98349 11.808 1.55016 12.1497 2.43349C12.233 2.65849 12.1913 2.90849 12.033 3.08349C11.908 3.21682 11.733 3.28349 11.5663 3.28349ZM10.0162 19.0084C9.19124 19.0084 8.39124 18.6751 7.80793 18.0918C7.2246 17.5084 6.89127 16.7084 6.89127 15.8834H8.14127C8.14127 16.3751 8.34124 16.8584 8.69124 17.2084C9.04124 17.5584 9.52457 17.7584 10.0162 17.7584C11.0496 17.7584 11.8912 16.9168 11.8912 15.8834H13.1412C13.1412 17.6084 11.7412 19.0084 10.0162 19.0084Z" fill="#1F1F1F"/>
<circle cx="10" cy="26" r="2" fill="#FF0000"/>
</svg>
