<svg width="102" height="104" viewBox="0 0 102 104" fill="none" xmlns="http://www.w3.org/2000/svg">
<g filter="url(#filter0_d_1_248)">
<circle cx="52" cy="52" r="22" fill="white"/>
</g>
<path d="M49.4247 59.225C49.2663 59.225 49.108 59.1667 48.983 59.0417C48.7413 58.8 48.7413 58.4 48.983 58.1583L54.4163 52.725C54.8163 52.325 54.8163 51.675 54.4163 51.275L48.983 45.8417C48.7413 45.6 48.7413 45.2 48.983 44.9583C49.2247 44.7167 49.6247 44.7167 49.8663 44.9583L55.2997 50.3917C55.7247 50.8167 55.9663 51.3917 55.9663 52C55.9663 52.6083 55.733 53.1833 55.2997 53.6083L49.8663 59.0417C49.7413 59.1583 49.583 59.225 49.4247 59.225Z" fill="#A9A9A9"/>
<defs>
<filter id="filter0_d_1_248" x="0" y="0" width="104" height="104" filterUnits="userSpaceOnUse" color-interpolation-filters="sRGB">
<feFlood flood-opacity="0" result="BackgroundImageFix"/>
<feColorMatrix in="SourceAlpha" type="matrix" values="0 0 0 0 0 0 0 0 0 0 0 0 0 0 0 0 0 0 127 0" result="hardAlpha"/>
<feOffset/>
<feGaussianBlur stdDeviation="15"/>
<feComposite in2="hardAlpha" operator="out"/>
<feColorMatrix type="matrix" values="0 0 0 0 0.273333 0 0 0 0 0.41205 0 0 0 0 0.5125 0 0 0 0.16 0"/>
<feBlend mode="normal" in2="BackgroundImageFix" result="effect1_dropShadow_1_248"/>
<feBlend mode="normal" in="SourceGraphic" in2="effect1_dropShadow_1_248" result="shape"/>
</filter>
</defs>
</svg>
