<svg width="20" height="20" viewBox="0 0 20 20" fill="none" xmlns="http://www.w3.org/2000/svg">
<path d="M10 15.625C9.65833 15.625 9.375 15.3417 9.375 15V12.5C9.375 12.1583 9.65833 11.875 10 11.875C10.3417 11.875 10.625 12.1583 10.625 12.5V15C10.625 15.3417 10.3417 15.625 10 15.625Z" fill="#FF0000"/>
<path d="M14.6674 18.8001H5.33409C3.81743 18.8001 2.43409 17.6334 2.18409 16.1417L1.07576 9.50007C0.892427 8.46674 1.40076 7.14171 2.22576 6.48338L8.00076 1.85838C9.11739 0.958378 10.8757 0.966712 12.0007 1.86671L17.7757 6.48338C18.5924 7.14171 19.0924 8.46674 18.9257 9.50007L17.8174 16.1334C17.5674 17.6084 16.1507 18.8001 14.6674 18.8001ZM9.99239 2.44171C9.55073 2.44171 9.10906 2.57504 8.78406 2.83338L3.00909 7.46671C2.54243 7.84171 2.20909 8.7084 2.30909 9.30007L3.41743 15.9334C3.56743 16.8084 4.44243 17.5501 5.33409 17.5501H14.6674C15.5591 17.5501 16.4341 16.8084 16.5841 15.9251L17.6924 9.29174C17.7841 8.7084 17.4507 7.82505 16.9924 7.45838L11.2174 2.84171C10.8841 2.57504 10.4341 2.44171 9.99239 2.44171Z" fill="#FF0000"/>
</svg>
