<svg width="20" height="20" viewBox="0 0 20 20" fill="none" xmlns="http://www.w3.org/2000/svg">
<path d="M13.5661 18.4167H10.3995C9.93281 18.4167 8.91614 18.275 8.37448 17.7333L5.84945 15.7833L6.61612 14.7917L9.19948 16.7917C9.40781 16.9917 9.93281 17.1583 10.3995 17.1583H13.5661C14.3161 17.1583 15.1245 16.5583 15.2911 15.8833L17.3078 9.75833C17.4411 9.39166 17.4161 9.05833 17.2411 8.81666C17.0578 8.55833 16.7245 8.40833 16.3161 8.40833H12.9828C12.5495 8.40833 12.1495 8.22499 11.8745 7.90832C11.5911 7.58332 11.4661 7.14999 11.5328 6.69999L11.9495 4.02499C12.0495 3.55832 11.7328 3.03332 11.2828 2.88332C10.8745 2.73332 10.3495 2.94999 10.1661 3.21665L6.74946 8.29999L5.71613 7.60832L9.13281 2.52499C9.65781 1.74165 10.8078 1.36665 11.7078 1.70832C12.7495 2.04999 13.4161 3.19999 13.1828 4.26665L12.7745 6.89165C12.7661 6.94999 12.7661 7.03332 12.8245 7.09999C12.8661 7.14165 12.9245 7.16665 12.9911 7.16665H16.3245C17.1411 7.16665 17.8495 7.50832 18.2661 8.09999C18.6745 8.67499 18.7578 9.43333 18.4911 10.1667L16.4995 16.2333C16.1911 17.4417 14.9078 18.4167 13.5661 18.4167Z" fill="#1F1F1F"/>
<path d="M4.48407 17.4999H3.65074C2.10907 17.4999 1.35907 16.7749 1.35907 15.2916V7.12491C1.35907 5.64158 2.10907 4.91658 3.65074 4.91658H4.48407C6.02574 4.91658 6.77574 5.64158 6.77574 7.12491V15.2916C6.77574 16.7749 6.02574 17.4999 4.48407 17.4999ZM3.65074 6.16658C2.7424 6.16658 2.60907 6.38325 2.60907 7.12491V15.2916C2.60907 16.0332 2.7424 16.2499 3.65074 16.2499H4.48407C5.3924 16.2499 5.52574 16.0332 5.52574 15.2916V7.12491C5.52574 6.38325 5.3924 6.16658 4.48407 6.16658H3.65074Z" fill="#1F1F1F"/>
</svg>
