<svg width="20" height="20" viewBox="0 0 20 20" fill="none" xmlns="http://www.w3.org/2000/svg">
<path d="M14.6167 7.5501C13.1417 7.5501 11.9417 6.3501 11.9417 4.8751C11.9417 3.4001 13.1417 2.2001 14.6167 2.2001C16.0917 2.2001 17.2917 3.4001 17.2917 4.8751C17.2917 6.3501 16.0917 7.5501 14.6167 7.5501ZM14.6167 3.44177C13.8334 3.44177 13.1917 4.08344 13.1917 4.86677C13.1917 5.6501 13.8334 6.29177 14.6167 6.29177C15.4001 6.29177 16.0417 5.6501 16.0417 4.86677C16.0417 4.08344 15.4001 3.44177 14.6167 3.44177ZM5.38332 7.5501C3.90832 7.5501 2.70831 6.3501 2.70831 4.8751C2.70831 3.4001 3.90832 2.2001 5.38332 2.2001C6.85832 2.2001 8.05831 3.4001 8.05831 4.8751C8.05831 6.3501 6.85832 7.5501 5.38332 7.5501ZM5.38332 3.44177C4.59999 3.44177 3.95831 4.08344 3.95831 4.86677C3.95831 5.6501 4.59999 6.29177 5.38332 6.29177C6.16665 6.29177 6.80831 5.6501 6.80831 4.86677C6.80831 4.08344 6.17499 3.44177 5.38332 3.44177ZM14.6167 17.8085C13.1417 17.8085 11.9417 16.6085 11.9417 15.1335C11.9417 13.6585 13.1417 12.4585 14.6167 12.4585C16.0917 12.4585 17.2917 13.6585 17.2917 15.1335C17.2917 16.6085 16.0917 17.8085 14.6167 17.8085ZM14.6167 13.7002C13.8334 13.7002 13.1917 14.3418 13.1917 15.1252C13.1917 15.9085 13.8334 16.5502 14.6167 16.5502C15.4001 16.5502 16.0417 15.9085 16.0417 15.1252C16.0417 14.3418 15.4001 13.7002 14.6167 13.7002ZM5.38332 17.8085C3.90832 17.8085 2.70831 16.6085 2.70831 15.1335C2.70831 13.6585 3.90832 12.4585 5.38332 12.4585C6.85832 12.4585 8.05831 13.6585 8.05831 15.1335C8.05831 16.6085 6.85832 17.8085 5.38332 17.8085ZM5.38332 13.7002C4.59999 13.7002 3.95831 14.3418 3.95831 15.1252C3.95831 15.9085 4.59999 16.5502 5.38332 16.5502C6.16665 16.5502 6.80831 15.9085 6.80831 15.1252C6.80831 14.3418 6.17499 13.7002 5.38332 13.7002Z" fill="#1F1F1F"/>
</svg>
