<svg width="20" height="20" viewBox="0 0 20 20" fill="none" xmlns="http://www.w3.org/2000/svg">
<path d="M10 19.0083C9.42502 19.0083 8.88335 18.7167 8.50002 18.2083L7.25002 16.5417C7.22502 16.5083 7.12502 16.4583 7.07502 16.4583H6.66669C3.19169 16.4583 1.04169 15.5167 1.04169 10.8333V6.66666C1.04169 2.98332 2.98335 1.04166 6.66669 1.04166H11.6667C12.0084 1.04166 12.2917 1.32499 12.2917 1.66666C12.2917 2.00832 12.0084 2.29166 11.6667 2.29166H6.66669C3.68335 2.29166 2.29169 3.68332 2.29169 6.66666V10.8333C2.29169 14.6 3.58335 15.2083 6.66669 15.2083H7.08335C7.50835 15.2083 7.99169 15.45 8.25002 15.7917L9.50002 17.4583C9.79169 17.8417 10.2084 17.8417 10.5 17.4583L11.75 15.7917C12.025 15.425 12.4584 15.2083 12.9167 15.2083H13.3334C16.3167 15.2083 17.7084 13.8167 17.7084 10.8333V8.33332C17.7084 7.99166 17.9917 7.70832 18.3334 7.70832C18.675 7.70832 18.9584 7.99166 18.9584 8.33332V10.8333C18.9584 14.5167 17.0167 16.4583 13.3334 16.4583H12.9167C12.85 16.4583 12.7917 16.4917 12.75 16.5417L11.5 18.2083C11.1167 18.7167 10.575 19.0083 10 19.0083Z" fill="#1F1F1F"/>
<path d="M9.99998 9.99999C9.53331 9.99999 9.16665 9.62499 9.16665 9.16666C9.16665 8.70832 9.54165 8.33332 9.99998 8.33332C10.4583 8.33332 10.8333 8.70832 10.8333 9.16666C10.8333 9.62499 10.4666 9.99999 9.99998 9.99999ZM13.3333 9.99999C12.8666 9.99999 12.5 9.62499 12.5 9.16666C12.5 8.70832 12.875 8.33332 13.3333 8.33332C13.7916 8.33332 14.1666 8.70832 14.1666 9.16666C14.1666 9.62499 13.8 9.99999 13.3333 9.99999ZM6.66665 9.99999C6.19998 9.99999 5.83331 9.62499 5.83331 9.16666C5.83331 8.70832 6.20831 8.33332 6.66665 8.33332C7.12498 8.33332 7.49998 8.70832 7.49998 9.16666C7.49998 9.62499 7.13331 9.99999 6.66665 9.99999ZM16.25 6.45832C14.7583 6.45832 13.5416 5.24166 13.5416 3.74999C13.5416 2.25832 14.7583 1.04166 16.25 1.04166C17.7416 1.04166 18.9583 2.25832 18.9583 3.74999C18.9583 5.24166 17.7416 6.45832 16.25 6.45832ZM16.25 2.29166C15.45 2.29166 14.7916 2.94999 14.7916 3.74999C14.7916 4.54999 15.45 5.20832 16.25 5.20832C17.05 5.20832 17.7083 4.54999 17.7083 3.74999C17.7083 2.94999 17.05 2.29166 16.25 2.29166Z" fill="#1F1F1F"/>
</svg>
