<svg width="20" height="20" viewBox="0 0 20 20" fill="none" xmlns="http://www.w3.org/2000/svg">
<path d="M10 13.5417C7.81666 13.5417 6.04166 11.7667 6.04166 9.58332V4.99999C6.04166 2.81666 7.81666 1.04166 10 1.04166C12.1833 1.04166 13.9583 2.81666 13.9583 4.99999V9.58332C13.9583 11.7667 12.1833 13.5417 10 13.5417ZM10 2.29166C8.50833 2.29166 7.29166 3.50832 7.29166 4.99999V9.58332C7.29166 11.075 8.50833 12.2917 10 12.2917C11.4917 12.2917 12.7083 11.075 12.7083 9.58332V4.99999C12.7083 3.50832 11.4917 2.29166 10 2.29166Z" fill="#1F1F1F"/>
<path d="M9.99966 16.4583C6.14134 16.4583 2.99967 13.3166 2.99967 9.45825V8.04159C2.99967 7.69992 3.28301 7.41659 3.62467 7.41659C3.96634 7.41659 4.24967 7.69992 4.24967 8.04159V9.45825C4.24967 12.6249 6.833 15.2083 9.99966 15.2083C13.1663 15.2083 15.7497 12.6249 15.7497 9.45825V8.04159C15.7497 7.69992 16.033 7.41659 16.3747 7.41659C16.7163 7.41659 16.9997 7.69992 16.9997 8.04159V9.45825C16.9997 13.3166 13.858 16.4583 9.99966 16.4583ZM11.1582 5.98319C11.0916 5.98319 11.0166 5.97485 10.9416 5.94985C10.3332 5.72485 9.66658 5.72485 9.05825 5.94985C8.73325 6.06652 8.37491 5.89985 8.25823 5.57485C8.14156 5.24985 8.30823 4.89152 8.63325 4.77485C9.51658 4.45819 10.4916 4.45819 11.3749 4.77485C11.6999 4.89152 11.8666 5.24985 11.7499 5.57485C11.6499 5.82485 11.4082 5.98319 11.1582 5.98319Z" fill="#1F1F1F"/>
<path d="M10.6668 7.74985C10.6084 7.74985 10.5584 7.74152 10.5001 7.72485C10.1668 7.63319 9.82508 7.63319 9.49175 7.72485C9.15842 7.81652 8.81675 7.61652 8.72508 7.28319C8.63342 6.95819 8.83342 6.61652 9.16675 6.52485C9.70842 6.37485 10.2918 6.37485 10.8334 6.52485C11.1668 6.61652 11.3668 6.95819 11.2751 7.29152C11.2001 7.56652 10.9418 7.74985 10.6668 7.74985ZM10 18.9583C9.65833 18.9583 9.375 18.675 9.375 18.3333V15.8333C9.375 15.4917 9.65833 15.2083 10 15.2083C10.3417 15.2083 10.625 15.4917 10.625 15.8333V18.3333C10.625 18.675 10.3417 18.9583 10 18.9583Z" fill="#1F1F1F"/>
</svg>
