<svg width="20" height="20" viewBox="0 0 20 20" fill="none" xmlns="http://www.w3.org/2000/svg">
<path d="M9.99982 8.39166C8.66648 8.39166 7.57485 7.29999 7.57485 5.96666C7.57485 4.63332 8.66648 3.54166 9.99982 3.54166C11.3331 3.54166 12.4248 4.63332 12.4248 5.96666C12.4248 7.29999 11.3331 8.39166 9.99982 8.39166ZM9.99982 4.79166C9.34982 4.79166 8.82482 5.31666 8.82482 5.96666C8.82482 6.61666 9.34982 7.14166 9.99982 7.14166C10.6498 7.14166 11.1748 6.61666 11.1748 5.96666C11.1748 5.31666 10.6498 4.79166 9.99982 4.79166ZM5.65822 16.4585C4.32488 16.4585 3.23322 15.3668 3.23322 14.0335C3.23322 12.7002 4.32488 11.6085 5.65822 11.6085C6.99155 11.6085 8.08322 12.7002 8.08322 14.0335C8.08322 15.3668 6.99155 16.4585 5.65822 16.4585ZM5.65822 12.8585C5.00822 12.8585 4.48322 13.3835 4.48322 14.0335C4.48322 14.6835 5.00822 15.2085 5.65822 15.2085C6.30822 15.2085 6.83322 14.6835 6.83322 14.0335C6.83322 13.3835 6.29988 12.8585 5.65822 12.8585ZM14.3415 16.4585C13.0082 16.4585 11.9165 15.3668 11.9165 14.0335C11.9165 12.7002 13.0082 11.6085 14.3415 11.6085C15.6748 11.6085 16.7665 12.7002 16.7665 14.0335C16.7665 15.3668 15.6832 16.4585 14.3415 16.4585ZM14.3415 12.8585C13.6915 12.8585 13.1665 13.3835 13.1665 14.0335C13.1665 14.6835 13.6915 15.2085 14.3415 15.2085C14.9915 15.2085 15.5165 14.6835 15.5165 14.0335C15.5165 13.3835 14.9915 12.8585 14.3415 12.8585Z" fill="#1F1F1F"/>
</svg>
