<svg width="20" height="20" viewBox="0 0 20 20" fill="none" xmlns="http://www.w3.org/2000/svg">
<path d="M9.58332 18.125C4.87499 18.125 1.04166 14.2917 1.04166 9.58332C1.04166 4.87499 4.87499 1.04166 9.58332 1.04166C14.2917 1.04166 18.125 4.87499 18.125 9.58332C18.125 14.2917 14.2917 18.125 9.58332 18.125ZM9.58332 2.29166C5.55832 2.29166 2.29166 5.56666 2.29166 9.58332C2.29166 13.6 5.55832 16.875 9.58332 16.875C13.6083 16.875 16.875 13.6 16.875 9.58332C16.875 5.56666 13.6083 2.29166 9.58332 2.29166ZM18.3337 18.9582C18.1753 18.9582 18.017 18.8999 17.892 18.7749L16.2253 17.1082C15.9837 16.8666 15.9837 16.4666 16.2253 16.2249C16.467 15.9832 16.867 15.9832 17.1087 16.2249L18.7753 17.8916C19.017 18.1332 19.017 18.5332 18.7753 18.7749C18.6503 18.8999 18.492 18.9582 18.3337 18.9582Z" fill="#A9A9A9"/>
</svg>
