<svg width="20" height="20" viewBox="0 0 20 20" fill="none" xmlns="http://www.w3.org/2000/svg">
<path d="M10 13.125C8.275 13.125 6.875 11.725 6.875 10C6.875 8.275 8.275 6.875 10 6.875C11.725 6.875 13.125 8.275 13.125 10C13.125 11.725 11.725 13.125 10 13.125ZM10 8.125C8.96667 8.125 8.125 8.96667 8.125 10C8.125 11.0333 8.96667 11.875 10 11.875C11.0333 11.875 11.875 11.0333 11.875 10C11.875 8.96667 11.0333 8.125 10 8.125Z" fill="#1F1F1F"/>
<path d="M12.675 18.4915C12.5 18.4915 12.325 18.4665 12.15 18.4248C11.6334 18.2832 11.2 17.9582 10.925 17.4998L10.825 17.3332C10.3334 16.4832 9.65835 16.4832 9.16669 17.3332L9.07502 17.4915C8.80002 17.9582 8.36669 18.2915 7.85002 18.4248C7.32502 18.5665 6.78335 18.4915 6.32502 18.2165L4.89169 17.3915C4.38335 17.0998 4.01669 16.6248 3.85835 16.0498C3.70835 15.4748 3.78335 14.8832 4.07502 14.3748C4.31669 13.9498 4.38335 13.5665 4.24169 13.3248C4.10002 13.0832 3.74169 12.9415 3.25002 12.9415C2.03335 12.9415 1.04169 11.9498 1.04169 10.7332V9.2665C1.04169 8.04983 2.03335 7.05817 3.25002 7.05817C3.74169 7.05817 4.10002 6.9165 4.24169 6.67483C4.38335 6.43317 4.32502 6.04983 4.07502 5.62483C3.78335 5.1165 3.70835 4.5165 3.85835 3.94983C4.00835 3.37483 4.37502 2.89983 4.89169 2.60817L6.33335 1.78317C7.27502 1.22483 8.51669 1.54983 9.08335 2.50817L9.18335 2.67483C9.67502 3.52483 10.35 3.52483 10.8417 2.67483L10.9334 2.5165C11.5 1.54983 12.7417 1.22483 13.6917 1.7915L15.125 2.6165C15.6334 2.90817 16 3.38317 16.1584 3.95817C16.3084 4.53317 16.2334 5.12483 15.9417 5.63316C15.7 6.05817 15.6334 6.4415 15.775 6.68317C15.9167 6.92483 16.275 7.0665 16.7667 7.0665C17.9834 7.0665 18.975 8.05816 18.975 9.27483V10.7415C18.975 11.9582 17.9834 12.9498 16.7667 12.9498C16.275 12.9498 15.9167 13.0915 15.775 13.3332C15.6334 13.5748 15.6917 13.9582 15.9417 14.3832C16.2334 14.8915 16.3167 15.4915 16.1584 16.0582C16.0084 16.6332 15.6417 17.1082 15.125 17.3998L13.6834 18.2248C13.3667 18.3998 13.025 18.4915 12.675 18.4915ZM10 15.4082C10.7417 15.4082 11.4334 15.8748 11.9084 16.6998L12 16.8582C12.1 17.0332 12.2667 17.1582 12.4667 17.2082C12.6667 17.2582 12.8667 17.2332 13.0334 17.1332L14.475 16.2998C14.6917 16.1748 14.8584 15.9665 14.925 15.7165C14.9917 15.4665 14.9584 15.2082 14.8334 14.9915C14.3584 14.1748 14.3 13.3332 14.6667 12.6915C15.0334 12.0498 15.7917 11.6832 16.7417 11.6832C17.275 11.6832 17.7 11.2582 17.7 10.7248V9.25817C17.7 8.73317 17.275 8.29983 16.7417 8.29983C15.7917 8.29983 15.0334 7.93316 14.6667 7.2915C14.3 6.64983 14.3584 5.80817 14.8334 4.9915C14.9584 4.77483 14.9917 4.5165 14.925 4.2665C14.8584 4.0165 14.7 3.8165 14.4834 3.68316L13.0417 2.85817C12.6834 2.6415 12.2084 2.7665 11.9917 3.13317L11.9 3.2915C11.425 4.1165 10.7334 4.58317 9.99169 4.58317C9.25002 4.58317 8.55835 4.1165 8.08335 3.2915L7.99169 3.12483C7.78335 2.77483 7.31669 2.64983 6.95835 2.85817L5.51669 3.6915C5.30002 3.8165 5.13335 4.02483 5.06669 4.27483C5.00002 4.52483 5.03335 4.78317 5.15835 4.99983C5.63335 5.8165 5.69169 6.65816 5.32502 7.29983C4.95835 7.9415 4.20002 8.30817 3.25002 8.30817C2.71669 8.30817 2.29169 8.73316 2.29169 9.2665V10.7332C2.29169 11.2582 2.71669 11.6915 3.25002 11.6915C4.20002 11.6915 4.95835 12.0582 5.32502 12.6998C5.69169 13.3415 5.63335 14.1832 5.15835 14.9998C5.03335 15.2165 5.00002 15.4748 5.06669 15.7248C5.13335 15.9748 5.29169 16.1748 5.50835 16.3082L6.95002 17.1332C7.12502 17.2415 7.33335 17.2665 7.52502 17.2165C7.72502 17.1665 7.89169 17.0332 8.00002 16.8582L8.09169 16.6998C8.56669 15.8832 9.25835 15.4082 10 15.4082Z" fill="#1F1F1F"/>
</svg>
