<svg width="20" height="20" viewBox="0 0 20 20" fill="none" xmlns="http://www.w3.org/2000/svg">
<path d="M6.25036 12.7083C6.09202 12.7083 5.93369 12.6499 5.80869 12.5249C5.56702 12.2833 5.56702 11.8833 5.80869 11.6416L8.47533 8.97492C8.60867 8.84158 8.78367 8.77492 8.97533 8.79158C9.15867 8.80825 9.32533 8.90825 9.43367 9.06658L10.342 10.4333L13.3003 7.47495C13.542 7.23328 13.942 7.23328 14.1837 7.47495C14.4253 7.71662 14.4253 8.11662 14.1837 8.35825L10.6837 11.8583C10.5503 11.9916 10.3753 12.0583 10.1837 12.0416C10.0003 12.0249 9.83367 11.9249 9.72533 11.7666L8.817 10.3999L6.69202 12.5249C6.56702 12.6499 6.40869 12.7083 6.25036 12.7083Z" fill="#1F1F1F"/>
<path d="M13.75 10.2083C13.4083 10.2083 13.125 9.92501 13.125 9.58334V8.54167H12.0833C11.7416 8.54167 11.4583 8.25834 11.4583 7.91667C11.4583 7.57501 11.7416 7.29167 12.0833 7.29167H13.75C14.0916 7.29167 14.375 7.57501 14.375 7.91667V9.58334C14.375 9.92501 14.0916 10.2083 13.75 10.2083Z" fill="#1F1F1F"/>
<path d="M12.5 18.9583H7.50002C2.97502 18.9583 1.04169 17.025 1.04169 12.5V7.50001C1.04169 2.97501 2.97502 1.04167 7.50002 1.04167H12.5C17.025 1.04167 18.9584 2.97501 18.9584 7.50001V12.5C18.9584 17.025 17.025 18.9583 12.5 18.9583ZM7.50002 2.29167C3.65835 2.29167 2.29169 3.65834 2.29169 7.50001V12.5C2.29169 16.3417 3.65835 17.7083 7.50002 17.7083H12.5C16.3417 17.7083 17.7084 16.3417 17.7084 12.5V7.50001C17.7084 3.65834 16.3417 2.29167 12.5 2.29167H7.50002Z" fill="#1F1F1F"/>
</svg>
