<svg width="20" height="20" viewBox="0 0 20 20" fill="none" xmlns="http://www.w3.org/2000/svg">
<path d="M8.96652 13.6415C8.61652 13.6415 8.29156 13.5582 7.99989 13.3915C7.33322 13.0082 6.94989 12.2248 6.94989 11.2332V8.7665C6.94989 7.78318 7.33322 6.9915 7.99989 6.60817C8.66652 6.22483 9.53319 6.28318 10.3915 6.78318L12.5332 8.0165C13.3832 8.50817 13.8749 9.23317 13.8749 9.99983C13.8749 10.7665 13.3832 11.4915 12.5332 11.9832L10.3915 13.2165C9.90819 13.4998 9.41652 13.6415 8.96652 13.6415ZM8.97486 7.60818C8.84152 7.60818 8.72486 7.63317 8.63319 7.6915C8.36652 7.84983 8.20822 8.24151 8.20822 8.7665V11.2332C8.20822 11.7582 8.35819 12.1498 8.63319 12.3082C8.89986 12.4665 9.31652 12.3998 9.77486 12.1332L11.9165 10.8998C12.3749 10.6332 12.6332 10.3082 12.6332 9.99983C12.6332 9.6915 12.3749 9.35817 11.9165 9.09983L9.77486 7.8665C9.47486 7.6915 9.19986 7.60818 8.97486 7.60818Z" fill="#1F1F1F"/>
<path d="M10 18.9583C5.05835 18.9583 1.04169 14.9417 1.04169 9.99999C1.04169 5.05832 5.05835 1.04166 10 1.04166C14.9417 1.04166 18.9584 5.05832 18.9584 9.99999C18.9584 14.9417 14.9417 18.9583 10 18.9583ZM10 2.29166C5.75002 2.29166 2.29169 5.74999 2.29169 9.99999C2.29169 14.25 5.75002 17.7083 10 17.7083C14.25 17.7083 17.7084 14.25 17.7084 9.99999C17.7084 5.74999 14.25 2.29166 10 2.29166Z" fill="#1F1F1F"/>
</svg>
