<svg width="20" height="20" viewBox="0 0 20 20" fill="none" xmlns="http://www.w3.org/2000/svg">
<path d="M10.7334 17.3834H5.67502C2.71669 17.3834 1.66669 15.3084 1.66669 13.3751V6.62512C1.66669 3.74179 2.79169 2.61679 5.67502 2.61679H10.7334C13.6167 2.61679 14.7417 3.74179 14.7417 6.62512V13.3751C14.7417 16.2584 13.6167 17.3834 10.7334 17.3834ZM5.67502 3.88346C3.50002 3.88346 2.93335 4.45012 2.93335 6.62512V13.3751C2.93335 14.4001 3.29169 16.1168 5.67502 16.1168H10.7334C12.9084 16.1168 13.475 15.5501 13.475 13.3751V6.62512C13.475 4.45012 12.9084 3.88346 10.7334 3.88346H5.67502Z" fill="#1F1F1F"/>
<path d="M17.3164 15.0917C16.9581 15.0917 16.4997 14.975 15.9747 14.6083L13.7497 13.05C13.5831 12.9333 13.4831 12.7417 13.4831 12.5333V7.46667C13.4831 7.25834 13.5831 7.06668 13.7497 6.95001L15.9747 5.39167C16.9664 4.70001 17.6914 4.90001 18.0331 5.07501C18.3747 5.25834 18.9581 5.73334 18.9581 6.94167V13.05C18.9581 14.2583 18.3747 14.7417 18.0331 14.9167C17.8747 15.0083 17.6247 15.0917 17.3164 15.0917ZM14.7414 12.2L16.6997 13.5667C17.0747 13.825 17.3414 13.85 17.4497 13.7917C17.5664 13.7333 17.6914 13.5 17.6914 13.05V6.95001C17.6914 6.49167 17.5581 6.26667 17.4497 6.20834C17.3414 6.15001 17.0747 6.17501 16.6997 6.43334L14.7414 7.80001V12.2ZM9.58331 9.79168C8.54998 9.79168 7.70831 8.95001 7.70831 7.91668C7.70831 6.88335 8.54998 6.04168 9.58331 6.04168C10.6166 6.04168 11.4583 6.88335 11.4583 7.91668C11.4583 8.95001 10.6166 9.79168 9.58331 9.79168ZM9.58331 7.29168C9.24165 7.29168 8.95831 7.57501 8.95831 7.91668C8.95831 8.25835 9.24165 8.54168 9.58331 8.54168C9.92498 8.54168 10.2083 8.25835 10.2083 7.91668C10.2083 7.57501 9.92498 7.29168 9.58331 7.29168Z" fill="#1F1F1F"/>
</svg>
