<svg width="34" height="34" viewBox="0 0 34 34" fill="none" xmlns="http://www.w3.org/2000/svg">
<path d="M17.0003 32.2293C16.0511 32.2293 15.0877 31.9885 14.2377 31.4926L5.82271 26.6335C4.12271 25.6418 3.06024 23.8143 3.06024 21.8451V12.1552C3.06024 10.186 4.12271 8.35849 5.82271 7.36682L14.2377 2.50767C15.9377 1.516 18.0486 1.516 19.7628 2.50767L28.1778 7.36682C29.8778 8.35849 30.9402 10.186 30.9402 12.1552V21.8451C30.9402 23.8143 29.8778 25.6418 28.1778 26.6335L19.7628 31.4926C18.9128 31.9885 17.9495 32.2293 17.0003 32.2293ZM17.0003 3.89597C16.4195 3.89597 15.8243 4.0518 15.3002 4.3493L6.88521 9.20847C5.83688 9.81764 5.18524 10.9368 5.18524 12.1552V21.8451C5.18524 23.0493 5.83688 24.1826 6.88521 24.7918L15.3002 29.651C16.3485 30.2601 17.652 30.2601 18.7003 29.651L27.1153 24.7918C28.1636 24.1826 28.8152 23.0635 28.8152 21.8451V12.1552C28.8152 10.951 28.1636 9.81764 27.1153 9.20847L18.7003 4.3493C18.1761 4.0518 17.5811 3.89597 17.0003 3.89597Z" fill="#FF0000"/>
<path d="M15.7111 22.1996C15.2011 22.1996 14.7194 22.0721 14.2803 21.8313C13.3028 21.2646 12.7361 20.1171 12.7361 18.6863V15.2863C12.7361 13.8554 13.3028 12.7079 14.2803 12.1413C15.2578 11.5746 16.5329 11.6596 17.7654 12.3821L20.7119 14.0821C21.9444 14.7904 22.6669 15.8529 22.6669 16.9863C22.6669 18.1196 21.9586 19.1679 20.7119 19.8904L17.7654 21.5904C17.0854 22.0013 16.3769 22.1996 15.7111 22.1996ZM15.7254 13.9121C15.5837 13.9121 15.4561 13.9404 15.3569 13.9971C15.0594 14.1671 14.8753 14.6488 14.8753 15.3004V18.7004C14.8753 19.3379 15.0594 19.8196 15.3569 20.0038C15.6544 20.1738 16.1644 20.0888 16.7169 19.7629L19.6636 18.0629C20.2161 17.7371 20.5419 17.3404 20.5419 17.0004C20.5419 16.6604 20.2161 16.2638 19.6636 15.9379L16.7169 14.2379C16.3486 14.0254 15.9946 13.9121 15.7254 13.9121Z" fill="#FF0000"/>
</svg>
